<?xml version="1.0" encoding="UTF-8" standalone="no"?>
<!-- Generator: Adobe Illustrator 23.0.1, SVG Export Plug-In . SVG Version: 6.00 Build 0)  -->

<svg
   version="1.1"
   x="0px"
   y="0px"
   viewBox="0 0 1000 180"
   style="enable-background:new 0 0 1000 180;"
   xml:space="preserve"
   id="svg165"
   sodipodi:docname="logo-pokedex.svg"
   inkscape:version="1.1.2 (b8e25be833, 2022-02-05)"
   xmlns:inkscape="http://www.inkscape.org/namespaces/inkscape"
   xmlns:sodipodi="http://sodipodi.sourceforge.net/DTD/sodipodi-0.dtd"
   xmlns="http://www.w3.org/2000/svg"
   xmlns:svg="http://www.w3.org/2000/svg"><defs
   id="defs169" /><sodipodi:namedview
   id="namedview167"
   pagecolor="#ffffff"
   bordercolor="#666666"
   borderopacity="1.0"
   inkscape:pageshadow="2"
   inkscape:pageopacity="0.0"
   inkscape:pagecheckerboard="0"
   showgrid="false"
   inkscape:zoom="0.529"
   inkscape:cx="242.91115"
   inkscape:cy="147.44802"
   inkscape:window-width="1920"
   inkscape:window-height="1057"
   inkscape:window-x="-8"
   inkscape:window-y="-8"
   inkscape:window-maximized="1"
   inkscape:current-layer="svg165" />
<style
   type="text/css"
   id="style2">
	.st0{display:none;}
	.st1{display:inline;stroke:#FFFFFF;stroke-miterlimit:10;}
	.st2{display:inline;fill:#1E2225;}
	.st3{display:inline;}
	.st4{fill:none;}
	.st5{display:none;enable-background:new    ;}
	.st6{display:inline;fill:#FFFFFF;}
	.st7{display:none;fill:none;}
	.st8{fill:#FFFFFF;}
	.st9{display:inline;fill:none;}
	.st10{display:inline;enable-background:new    ;}
	.st11{fill:#151515;}
	.st12{fill:#F8F9FA;}
	.st13{fill:#1A1A1A;}
</style>
<g
   id="Capa_2"
   class="st0">
	<rect
   x="-50"
   y="-45"
   class="st1"
   width="1085"
   height="271"
   id="rect4" />
</g>
<g
   id="Capa_1"
   class="st0">
	<g
   id="Capa_3">
		<rect
   class="st2"
   width="1000"
   height="180"
   id="rect7" />
	</g>
	<g
   class="st3"
   id="g50">
		<rect
   x="209.2"
   y="51.4"
   class="st4"
   width="56.4"
   height="78.5"
   id="rect10" />
		<g
   class="st5"
   id="g14">
			<path
   class="st6"
   d="M105.9,128.8V51.4h20.2c2.9,0,5.5,0.1,7.7,0.4s4.5,0.9,6.7,1.8c2.2,0.9,4.1,2,5.5,3.5     c1.4,1.4,2.6,3.4,3.5,5.9c0.8,2.3,1.2,5,1.2,8c0,0.2,0,0.4,0,0.7c-0.1,9-3.9,14.2-11.3,15.5c4.4,0.6,7.8,2.5,10.2,5.6     s3.5,7.5,3.6,13c0,0.2,0,0.4,0,0.5c0,7.6-2,13.2-5.9,16.8c-4,3.7-9.9,5.6-17.5,5.6h-23.9V128.8z M123,82.3h3.3     c3.7,0,6.2-0.8,7.5-2.5c1.3-1.6,2-4.3,2-7.8c0-6.1-3.3-9.1-10-9.1H123V82.3z M123,116.8h3.6c3.7,0,6.3-0.9,7.8-2.7     s2.2-4.7,2.2-8.5c0-4.4-0.8-7.4-2.3-9.2s-4.2-2.7-8-2.7H123V116.8z"
   id="path12" />
		</g>
		<rect
   x="240.2"
   y="51.4"
   class="st7"
   width="705.8"
   height="78.5"
   id="rect16" />
		<g
   class="st5"
   id="g48">
			<path
   class="st2"
   d="M253.1,128.8V64h-11.9V51.4H282V64h-11.8v64.7h-17.1V128.8z"
   id="path18" />
			<path
   class="st2"
   d="M287.8,128.8V51.4h15.6v27.1c3.9-3.9,8.4-5.9,13.5-5.9c3.3,0,5.8,1.2,7.5,3.6s2.6,5.5,2.6,9.2v43.4h-15.6     v-41c0-1.4-0.2-2.4-0.7-3.1c-0.4-0.7-1.2-1-2.4-1c-1.4,0-3,0.7-4.9,2v43.1L287.8,128.8L287.8,128.8z"
   id="path20" />
			<path
   class="st2"
   d="M354.5,129.8c-6.1,0-10.8-1.6-14.1-4.9c-3.3-3.3-5-7.9-5-13.8V91.2c0-5.9,1.7-10.5,5-13.8s8.1-4.9,14.1-4.9     c6.1,0,10.7,1.6,13.8,4.7c3.1,3.2,4.6,7.8,4.6,13.9V102h-22.1v9.7c0,2.2,0.3,3.9,0.8,5.1c0.6,1.1,1.5,1.7,2.8,1.7     c2.6,0,3.9-1.8,3.9-5.4v-3.7h14.5v3.2c0,5.5-1.6,9.7-4.8,12.6C364.8,128.3,360.3,129.8,354.5,129.8z M350.8,94.8h7.6v-5.5     c0-2.1-0.3-3.5-1-4.4s-1.7-1.3-2.9-1.3c-1.2,0-2.1,0.5-2.7,1.5s-0.9,2.7-0.9,5.1v4.6C350.9,94.8,350.8,94.8,350.8,94.8z"
   id="path22" />
			<path
   class="st2"
   d="M381.3,128.8V73.5h15.3V78c3.7-3.7,8.1-5.5,13.2-5.5c2.2,0,4.1,0.6,5.7,1.7s2.9,2.7,3.7,4.9     c3.9-4.4,8.6-6.5,14.1-6.5c3.2,0,5.8,1.2,7.7,3.5c1.9,2.4,2.9,5.6,2.9,9.8v42.9h-15.3V87.4c0-1.5-0.3-2.6-0.8-3.3     c-0.5-0.7-1.4-1-2.5-0.9c-1.7,0.1-3.4,0.7-5.1,2v0.7v42.9H405V87.4c0-1.5-0.3-2.6-0.8-3.3c-0.5-0.7-1.4-1-2.5-1     c-1.6,0.1-3.3,0.8-5.2,2.1v43.5h-15.2V128.8z"
   id="path24" />
			<path
   class="st2"
   d="M471.3,129.8c-6.1,0-10.8-1.6-14.1-4.9c-3.3-3.3-5-7.9-5-13.8V91.2c0-5.9,1.7-10.5,5-13.8s8.1-4.9,14.1-4.9     c6.1,0,10.7,1.6,13.8,4.7c3.1,3.2,4.6,7.8,4.6,13.9V102h-22.1v9.7c0,2.2,0.3,3.9,0.8,5.1c0.6,1.1,1.5,1.7,2.8,1.7     c2.6,0,3.9-1.8,3.9-5.4v-3.7h14.5v3.2c0,5.5-1.6,9.7-4.8,12.6C481.7,128.3,477.1,129.8,471.3,129.8z M467.6,94.8h7.6v-5.5     c0-2.1-0.3-3.5-1-4.4s-1.7-1.3-2.9-1.3c-1.2,0-2.1,0.5-2.7,1.5s-0.9,2.7-0.9,5.1v4.6C467.7,94.8,467.6,94.8,467.6,94.8z"
   id="path26" />
			<path
   class="st2"
   d="M514.4,129.8c-4.7,0-8.6-1.1-11.7-3.3s-5.6-5.7-7.5-10.6l10.8-4.7c1.1,2.6,2.3,4.6,3.7,6.1     c1.3,1.3,2.6,2,4,2c0.2,0,0.3,0,0.5,0c1-0.1,1.8-0.4,2.4-1.1c0.7-0.7,1-1.6,0.9-2.6c0-0.5-0.2-1.1-0.6-1.7c-0.4-0.6-1-1.4-2-2.3     s-1.7-1.6-2.1-1.9c-0.4-0.3-1.3-1.1-2.7-2.3l-4.3-3.7c-6.3-5.3-9.4-10.5-9.4-15.5c0-3,0.8-5.7,2.4-8.1s3.6-4.2,6.2-5.4     s5.4-1.9,8.4-1.9c4.5,0,8.3,1.2,11.3,3.7s5.2,6,6.4,10.5L521,91.7c-0.6-2.1-1.5-3.9-2.7-5.5s-2.5-2.4-4-2.5c-0.1,0-0.1,0-0.1,0     c-1.1,0-2,0.3-2.6,0.9c-0.7,0.6-1,1.4-1.1,2.3c-0.1,1.5,2.1,4.1,6.6,7.9c0.4,0.3,0.7,0.6,0.8,0.7l4.2,3.7     c1.6,1.4,2.8,2.5,3.6,3.3s1.8,1.9,2.9,3.3c1.2,1.4,2,2.8,2.5,4.3s0.8,3,0.8,4.7c0,3.1-0.8,5.9-2.5,8.2c-1.7,2.3-3.8,4.1-6.5,5.2     C520.4,129.2,517.5,129.8,514.4,129.8z"
   id="path28" />
			<path
   class="st2"
   d="M563.9,128.8V51.4h20.2c2.9,0,5.5,0.1,7.7,0.4s4.5,0.9,6.7,1.8s4.1,2,5.5,3.5c1.4,1.4,2.6,3.4,3.5,5.9     c0.8,2.3,1.2,5,1.2,8c0,0.2,0,0.4,0,0.7c-0.1,9-3.9,14.2-11.3,15.5c4.4,0.6,7.8,2.5,10.2,5.6s3.5,7.5,3.6,13c0,0.2,0,0.4,0,0.5     c0,7.6-2,13.2-5.9,16.8c-4,3.7-9.9,5.6-17.5,5.6h-23.9V128.8z M581,82.3h3.3c3.7,0,6.2-0.8,7.5-2.5c1.3-1.6,2-4.3,2-7.8     c0-6.1-3.3-9.1-10-9.1H581V82.3z M581,116.8h3.6c3.7,0,6.3-0.9,7.8-2.7s2.2-4.7,2.2-8.5c0-4.4-0.8-7.4-2.3-9.2s-4.2-2.7-8-2.7     H581V116.8z"
   id="path30" />
			<path
   class="st2"
   d="M651.6,125.1c-3.4,3.1-8.2,4.7-14.2,4.7s-10.8-1.6-14.1-4.7s-5.1-7.6-5.1-13.5V90.7c0-5.9,1.7-10.4,5.1-13.5     s8.1-4.6,14.1-4.6s10.8,1.6,14.2,4.7s5.2,7.6,5.2,13.5v20.9C656.8,117.5,655.1,122,651.6,125.1z M637.4,119.3     c1.5,0,2.5-0.6,3.1-1.7s0.9-2.8,0.9-5v-23c0-2.2-0.3-3.9-0.9-5c-0.6-1.1-1.6-1.7-3.1-1.7c-1.4,0-2.4,0.6-3,1.7s-0.9,2.8-0.9,5v23     c0,2.1,0.3,3.8,0.9,4.9C635,118.7,636,119.3,637.4,119.3z"
   id="path32" />
			<path
   class="st2"
   d="M697.8,125.1c-3.4,3.1-8.2,4.7-14.2,4.7s-10.8-1.6-14.1-4.7c-3.4-3.1-5.1-7.6-5.1-13.5V90.7     c0-5.9,1.7-10.4,5.1-13.5c3.4-3.1,8.1-4.6,14.1-4.6s10.8,1.6,14.2,4.7s5.2,7.6,5.2,13.5v20.9C703,117.5,701.2,122,697.8,125.1z      M683.6,119.3c1.5,0,2.5-0.6,3.1-1.7s0.9-2.8,0.9-5v-23c0-2.2-0.3-3.9-0.9-5c-0.6-1.1-1.6-1.7-3.1-1.7c-1.4,0-2.4,0.6-3,1.7     s-0.9,2.8-0.9,5v23c0,2.1,0.3,3.8,0.9,4.9C681.1,118.7,682.2,119.3,683.6,119.3z"
   id="path34" />
			<path
   class="st2"
   d="M727.3,129.4c-1.7-0.1-3.3-0.3-4.6-0.7c-1.4-0.4-2.6-1-3.5-1.6c-1-0.7-1.8-1.5-2.5-2.5s-1.3-2-1.7-3.1     s-0.8-2.3-1-3.7s-0.4-2.7-0.5-4s-0.1-2.7-0.1-4.4V83.7h-5.3V73.5h5.3V56.8h15.7v16.8h7.9v10.2h-7.9v28.6c0,2.9,1.7,4.4,5,4.5     c0.4,0,0.9,0,1.4,0s0.9-0.1,1.3-0.1c0.3,0,0.7-0.1,1-0.2s0.5-0.1,0.5-0.1v12.3c-3.3,0.6-6.4,0.8-9.2,0.8     C728.3,129.5,727.8,129.5,727.3,129.4z"
   id="path36" />
			<path
   class="st2"
   d="M761.6,129.8c-4.7,0-8.6-1.1-11.7-3.3s-5.6-5.7-7.5-10.6l10.8-4.7c1.1,2.6,2.3,4.6,3.7,6.1     c1.3,1.3,2.6,2,4,2c0.2,0,0.3,0,0.5,0c1-0.1,1.8-0.4,2.4-1.1s1-1.6,0.9-2.6c0-0.5-0.2-1.1-0.6-1.7c-0.4-0.6-1-1.4-2-2.3     s-1.7-1.6-2.1-1.9c-0.4-0.3-1.3-1.1-2.7-2.3l-4.3-3.7c-6.3-5.3-9.4-10.5-9.4-15.5c0-3,0.8-5.7,2.4-8.1c1.6-2.4,3.6-4.2,6.2-5.4     s5.4-1.9,8.4-1.9c4.5,0,8.3,1.2,11.3,3.7s5.2,6,6.4,10.5l-10.1,4.7c-0.6-2.1-1.5-3.9-2.7-5.5s-2.5-2.4-4-2.5c-0.1,0-0.1,0-0.1,0     c-1.1,0-2,0.3-2.6,0.9c-0.7,0.6-1,1.4-1.1,2.3c-0.1,1.5,2.1,4.1,6.6,7.9c0.4,0.3,0.7,0.6,0.8,0.7l4.2,3.7     c1.6,1.4,2.8,2.5,3.6,3.3s1.8,1.9,2.9,3.3c1.2,1.4,2,2.8,2.5,4.3s0.8,3,0.8,4.7c0,3.1-0.8,5.9-2.5,8.2c-1.7,2.3-3.8,4.1-6.5,5.2     C767.6,129.2,764.7,129.8,761.6,129.8z"
   id="path38" />
			<path
   class="st2"
   d="M801.4,129.4c-1.7-0.1-3.3-0.3-4.6-0.7c-1.4-0.4-2.6-1-3.5-1.6c-1-0.7-1.8-1.5-2.5-2.5s-1.3-2-1.7-3.1     s-0.8-2.3-1-3.7s-0.4-2.7-0.5-4s-0.1-2.7-0.1-4.4V83.7h-5.3V73.5h5.3V56.8h15.7v16.8h7.9v10.2h-7.9v28.6c0,2.9,1.7,4.4,5,4.5     c0.4,0,0.9,0,1.4,0s0.9-0.1,1.3-0.1c0.3,0,0.7-0.1,1-0.2s0.5-0.1,0.5-0.1v12.3c-3.3,0.6-6.4,0.8-9.2,0.8     C802.5,129.5,802,129.5,801.4,129.4z"
   id="path40" />
			<path
   class="st2"
   d="M819.7,128.8V73.5h15.6v9.2c3.4-6.6,7.1-9.9,11.1-9.9c0.6,0,1.3,0.1,2.2,0.4V87c-0.9-0.2-1.7-0.3-2.6-0.3     c-4.3,0.2-7.8,2.4-10.7,6.7v35.4L819.7,128.8L819.7,128.8z"
   id="path42" />
			<path
   class="st2"
   d="M866.1,129.8c-3.9-0.1-7-1.5-9.4-4.2c-2.3-2.7-3.5-5.8-3.5-9.3c0-1.8,0.2-3.5,0.7-5.1s1-2.9,1.6-4.1     s1.5-2.3,2.7-3.4s2.2-2,3.1-2.6c0.9-0.7,2.2-1.4,3.7-2.1c1.5-0.8,2.8-1.3,3.7-1.7c0.9-0.4,2.2-0.9,3.8-1.5s2.7-1,3.4-1.3V89     c0-1.6-0.2-2.8-0.7-3.6s-1.3-1.3-2.6-1.3c-2.1,0-3.2,1.5-3.4,4.4l-0.4,4.1L854.4,92c0-0.1,0-0.4,0-0.9s0-0.8,0-0.9     c0.5-6,2.3-10.5,5.6-13.3c3.3-2.9,8-4.3,14.1-4.3c5.4,0,9.6,1.5,12.4,4.5c2.8,3,4.3,7,4.3,12.1v25.7c0,3.5,0.3,8.2,1,13.9H878     c-0.8-4.5-1.2-7.1-1.3-7.8c-0.7,2.5-2,4.6-3.8,6.3C871.1,128.9,868.8,129.8,866.1,129.8z M871.7,119c0.7,0,1.5-0.3,2.3-0.8     s1.4-1.1,1.9-1.8v-15.1c-2.5,1.2-4.5,3-6.1,5.3s-2.4,4.5-2.4,6.6c0,1.8,0.4,3.2,1.2,4.3C869.4,118.5,870.5,119,871.7,119z"
   id="path44" />
			<path
   class="st2"
   d="M900.2,147V73.5h15.6v4.1c3.8-3.3,7.6-5,11.5-5c0.2,0,0.4,0,0.5,0c4,0.1,6.9,1.7,8.9,4.8     c1.9,3,2.9,6.9,2.9,11.6v23.6c0,5.3-1,9.5-3.2,12.6c-2.1,3.1-5.1,4.7-9,4.7s-7.7-1.7-11.7-5.1V147H900.2z M920,119.6     C920,119.6,920.1,119.6,920,119.6c1.4,0,2.4-0.6,3-1.7c0.6-1.2,0.9-2.7,1-4.5V87.7c0-1.7-0.3-3.1-1-4.2c-0.6-1-1.5-1.5-2.7-1.5     c-0.1,0-0.3,0-0.4,0c-1.2,0.1-2.5,0.7-4.1,1.8v34.3C917.3,119.1,918.7,119.6,920,119.6z"
   id="path46" />
		</g>
	</g>
	<g
   id="g96">
		<g
   class="st3"
   id="g54">
			<circle
   class="st8"
   cx="128.5"
   cy="90"
   r="77.5"
   id="circle52" />
		</g>
		<rect
   x="101.2"
   y="50.9"
   class="st9"
   width="56.4"
   height="78.5"
   id="rect56" />
		<g
   class="st10"
   id="g60">
			<path
   class="st11"
   d="M106.9,128.3V50.9h20.2c2.9,0,5.5,0.1,7.7,0.4s4.5,0.9,6.7,1.8c2.2,0.9,4.1,2,5.5,3.5     c1.4,1.4,2.6,3.4,3.5,5.9c0.8,2.3,1.2,5,1.2,8c0,0.2,0,0.4,0,0.7c-0.1,9-3.9,14.2-11.3,15.5c4.4,0.6,7.8,2.5,10.2,5.6     s3.5,7.5,3.6,13c0,0.2,0,0.4,0,0.5c0,7.6-2,13.2-5.9,16.8c-4,3.7-9.9,5.6-17.5,5.6h-23.9V128.3z M124,81.8h3.3     c3.7,0,6.2-0.8,7.5-2.5c1.3-1.6,2-4.3,2-7.8c0-6.1-3.3-9.1-10-9.1H124V81.8z M124,116.3h3.6c3.7,0,6.3-0.9,7.8-2.7     s2.2-4.7,2.2-8.5c0-4.4-0.8-7.4-2.3-9.2s-4.2-2.7-8-2.7H124V116.3z"
   id="path58" />
		</g>
		<rect
   x="241.2"
   y="50.9"
   class="st9"
   width="705.8"
   height="78.5"
   id="rect62" />
		<g
   class="st10"
   id="g94">
			<path
   class="st8"
   d="M254.1,128.3V63.5h-11.9V50.9H283v12.6h-11.8v64.7h-17.1V128.3z"
   id="path64" />
			<path
   class="st8"
   d="M288.8,128.3V50.9h15.6V78c3.9-3.9,8.4-5.9,13.5-5.9c3.3,0,5.8,1.2,7.5,3.6s2.6,5.5,2.6,9.2v43.4h-15.6v-41     c0-1.4-0.2-2.4-0.7-3.1c-0.4-0.7-1.2-1-2.4-1c-1.4,0-3,0.7-4.9,2v43.1L288.8,128.3L288.8,128.3z"
   id="path66" />
			<path
   class="st8"
   d="M355.5,129.3c-6.1,0-10.8-1.6-14.1-4.9c-3.3-3.3-5-7.9-5-13.8V90.7c0-5.9,1.7-10.5,5-13.8s8.1-4.9,14.1-4.9     c6.1,0,10.7,1.6,13.8,4.7c3.1,3.2,4.6,7.8,4.6,13.9v10.9h-22.1v9.7c0,2.2,0.3,3.9,0.8,5.1c0.6,1.1,1.5,1.7,2.8,1.7     c2.6,0,3.9-1.8,3.9-5.4V109h14.5v3.2c0,5.5-1.6,9.7-4.8,12.6C365.8,127.8,361.3,129.3,355.5,129.3z M351.8,94.3h7.6v-5.5     c0-2.1-0.3-3.5-1-4.4s-1.7-1.3-2.9-1.3c-1.2,0-2.1,0.5-2.7,1.5s-0.9,2.7-0.9,5.1v4.6C351.9,94.3,351.8,94.3,351.8,94.3z"
   id="path68" />
			<path
   class="st8"
   d="M382.3,128.3V73h15.3v4.5c3.7-3.7,8.1-5.5,13.2-5.5c2.2,0,4.1,0.6,5.7,1.7s2.9,2.7,3.7,4.9     c3.9-4.4,8.6-6.5,14.1-6.5c3.2,0,5.8,1.2,7.7,3.5c1.9,2.4,2.9,5.6,2.9,9.8v42.9h-15.3V86.9c0-1.5-0.3-2.6-0.8-3.3     c-0.5-0.7-1.4-1-2.5-0.9c-1.7,0.1-3.4,0.7-5.1,2v0.7v42.9H406V86.9c0-1.5-0.3-2.6-0.8-3.3c-0.5-0.7-1.4-1-2.5-1     c-1.6,0.1-3.3,0.8-5.2,2.1v43.5h-15.2V128.3z"
   id="path70" />
			<path
   class="st8"
   d="M472.3,129.3c-6.1,0-10.8-1.6-14.1-4.9c-3.3-3.3-5-7.9-5-13.8V90.7c0-5.9,1.7-10.5,5-13.8s8.1-4.9,14.1-4.9     c6.1,0,10.7,1.6,13.8,4.7c3.1,3.2,4.6,7.8,4.6,13.9v10.9h-22.1v9.7c0,2.2,0.3,3.9,0.8,5.1c0.6,1.1,1.5,1.7,2.8,1.7     c2.6,0,3.9-1.8,3.9-5.4V109h14.5v3.2c0,5.5-1.6,9.7-4.8,12.6C482.7,127.8,478.1,129.3,472.3,129.3z M468.6,94.3h7.6v-5.5     c0-2.1-0.3-3.5-1-4.4s-1.7-1.3-2.9-1.3c-1.2,0-2.1,0.5-2.7,1.5s-0.9,2.7-0.9,5.1v4.6C468.7,94.3,468.6,94.3,468.6,94.3z"
   id="path72" />
			<path
   class="st8"
   d="M515.4,129.3c-4.7,0-8.6-1.1-11.7-3.3s-5.6-5.7-7.5-10.6l10.8-4.7c1.1,2.6,2.3,4.6,3.7,6.1     c1.3,1.3,2.6,2,4,2c0.2,0,0.3,0,0.5,0c1-0.1,1.8-0.4,2.4-1.1c0.7-0.7,1-1.6,0.9-2.6c0-0.5-0.2-1.1-0.6-1.7c-0.4-0.6-1-1.4-2-2.3     s-1.7-1.6-2.1-1.9c-0.4-0.3-1.3-1.1-2.7-2.3l-4.3-3.7c-6.3-5.3-9.4-10.5-9.4-15.5c0-3,0.8-5.7,2.4-8.1s3.6-4.2,6.2-5.4     s5.4-1.9,8.4-1.9c4.5,0,8.3,1.2,11.3,3.7s5.2,6,6.4,10.5l-10,4.5c-0.6-2.1-1.5-3.9-2.7-5.5s-2.5-2.4-4-2.5c-0.1,0-0.1,0-0.1,0     c-1.1,0-2,0.3-2.6,0.9c-0.7,0.6-1,1.4-1.1,2.3c-0.1,1.5,2.1,4.1,6.6,7.9c0.4,0.3,0.7,0.6,0.8,0.7l4.2,3.7     c1.6,1.4,2.8,2.5,3.6,3.3s1.8,1.9,2.9,3.3c1.2,1.4,2,2.8,2.5,4.3s0.8,3,0.8,4.7c0,3.1-0.8,5.9-2.5,8.2c-1.7,2.3-3.8,4.1-6.5,5.2     C521.4,128.7,518.5,129.3,515.4,129.3z"
   id="path74" />
			<path
   class="st8"
   d="M564.9,128.3V50.9h20.2c2.9,0,5.5,0.1,7.7,0.4s4.5,0.9,6.7,1.8s4.1,2,5.5,3.5c1.4,1.4,2.6,3.4,3.5,5.9     c0.8,2.3,1.2,5,1.2,8c0,0.2,0,0.4,0,0.7c-0.1,9-3.9,14.2-11.3,15.5c4.4,0.6,7.8,2.5,10.2,5.6s3.5,7.5,3.6,13c0,0.2,0,0.4,0,0.5     c0,7.6-2,13.2-5.9,16.8c-4,3.7-9.9,5.6-17.5,5.6h-23.9V128.3z M582,81.8h3.3c3.7,0,6.2-0.8,7.5-2.5c1.3-1.6,2-4.3,2-7.8     c0-6.1-3.3-9.1-10-9.1H582V81.8z M582,116.3h3.6c3.7,0,6.3-0.9,7.8-2.7s2.2-4.7,2.2-8.5c0-4.4-0.8-7.4-2.3-9.2s-4.2-2.7-8-2.7     H582V116.3z"
   id="path76" />
			<path
   class="st8"
   d="M652.6,124.6c-3.4,3.1-8.2,4.7-14.2,4.7s-10.8-1.6-14.1-4.7s-5.1-7.6-5.1-13.5V90.2c0-5.9,1.7-10.4,5.1-13.5     s8.1-4.6,14.1-4.6s10.8,1.6,14.2,4.7s5.2,7.6,5.2,13.5v20.9C657.8,117,656.1,121.5,652.6,124.6z M638.4,118.8     c1.5,0,2.5-0.6,3.1-1.7s0.9-2.8,0.9-5v-23c0-2.2-0.3-3.9-0.9-5c-0.6-1.1-1.6-1.7-3.1-1.7c-1.4,0-2.4,0.6-3,1.7s-0.9,2.8-0.9,5v23     c0,2.1,0.3,3.8,0.9,4.9C636,118.2,637,118.8,638.4,118.8z"
   id="path78" />
			<path
   class="st8"
   d="M698.8,124.6c-3.4,3.1-8.2,4.7-14.2,4.7s-10.8-1.6-14.1-4.7c-3.4-3.1-5.1-7.6-5.1-13.5V90.2     c0-5.9,1.7-10.4,5.1-13.5c3.4-3.1,8.1-4.6,14.1-4.6s10.8,1.6,14.2,4.7s5.2,7.6,5.2,13.5v20.9C704,117,702.2,121.5,698.8,124.6z      M684.6,118.8c1.5,0,2.5-0.6,3.1-1.7s0.9-2.8,0.9-5v-23c0-2.2-0.3-3.9-0.9-5c-0.6-1.1-1.6-1.7-3.1-1.7c-1.4,0-2.4,0.6-3,1.7     s-0.9,2.8-0.9,5v23c0,2.1,0.3,3.8,0.9,4.9C682.1,118.2,683.2,118.8,684.6,118.8z"
   id="path80" />
			<path
   class="st8"
   d="M728.3,128.9c-1.7-0.1-3.3-0.3-4.6-0.7c-1.4-0.4-2.6-1-3.5-1.6c-1-0.7-1.8-1.5-2.5-2.5s-1.3-2-1.7-3.1     s-0.8-2.3-1-3.7s-0.4-2.7-0.5-4s-0.1-2.7-0.1-4.4V83.2h-5.3V73h5.3V56.3h15.7V73h7.9v10.2h-7.9v28.6c0,2.9,1.7,4.4,5,4.5     c0.4,0,0.9,0,1.4,0s0.9-0.1,1.3-0.1c0.3,0,0.7-0.1,1-0.2s0.5-0.1,0.5-0.1v12.3c-3.3,0.6-6.4,0.8-9.2,0.8     C729.3,129,728.8,129,728.3,128.9z"
   id="path82" />
			<path
   class="st8"
   d="M762.6,129.3c-4.7,0-8.6-1.1-11.7-3.3s-5.6-5.7-7.5-10.6l10.8-4.7c1.1,2.6,2.3,4.6,3.7,6.1     c1.3,1.3,2.6,2,4,2c0.2,0,0.3,0,0.5,0c1-0.1,1.8-0.4,2.4-1.1s1-1.6,0.9-2.6c0-0.5-0.2-1.1-0.6-1.7c-0.4-0.6-1-1.4-2-2.3     s-1.7-1.6-2.1-1.9c-0.4-0.3-1.3-1.1-2.7-2.3L754,103c-6.3-5.3-9.4-10.5-9.4-15.5c0-3,0.8-5.7,2.4-8.1c1.6-2.4,3.6-4.2,6.2-5.4     s5.4-1.9,8.4-1.9c4.5,0,8.3,1.2,11.3,3.7s5.2,6,6.4,10.5l-10,4.7c-0.6-2.1-1.5-3.9-2.7-5.5s-2.5-2.4-4-2.5c-0.1,0-0.1,0-0.1,0     c-1.1,0-2,0.3-2.6,0.9c-0.7,0.6-1,1.4-1.1,2.3c-0.1,1.5,2.1,4.1,6.6,7.9c0.4,0.3,0.7,0.6,0.8,0.7l4.2,3.7     c1.6,1.4,2.8,2.5,3.6,3.3s1.8,1.9,2.9,3.3c1.2,1.4,2,2.8,2.5,4.3s0.8,3,0.8,4.7c0,3.1-0.8,5.9-2.5,8.2c-1.7,2.3-3.8,4.1-6.5,5.2     C768.6,128.7,765.7,129.3,762.6,129.3z"
   id="path84" />
			<path
   class="st8"
   d="M802.4,128.9c-1.7-0.1-3.3-0.3-4.6-0.7c-1.4-0.4-2.6-1-3.5-1.6c-1-0.7-1.8-1.5-2.5-2.5s-1.3-2-1.7-3.1     s-0.8-2.3-1-3.7s-0.4-2.7-0.5-4s-0.1-2.7-0.1-4.4V83.2h-5.3V73h5.3V56.3h15.7V73h7.9v10.2h-7.9v28.6c0,2.9,1.7,4.4,5,4.5     c0.4,0,0.9,0,1.4,0s0.9-0.1,1.3-0.1c0.3,0,0.7-0.1,1-0.2s0.5-0.1,0.5-0.1v12.3c-3.3,0.6-6.4,0.8-9.2,0.8     C803.5,129,803,129,802.4,128.9z"
   id="path86" />
			<path
   class="st8"
   d="M820.7,128.3V73h15.6v9.2c3.4-6.6,7.1-9.9,11.1-9.9c0.6,0,1.3,0.1,2.2,0.4v13.8c-0.9-0.2-1.7-0.3-2.6-0.3     c-4.3,0.2-7.8,2.4-10.7,6.7v35.4L820.7,128.3L820.7,128.3z"
   id="path88" />
			<path
   class="st8"
   d="M867.1,129.3c-3.9-0.1-7-1.5-9.4-4.2c-2.3-2.7-3.5-5.8-3.5-9.3c0-1.8,0.2-3.5,0.7-5.1s1-2.9,1.6-4.1     s1.5-2.3,2.7-3.4s2.2-2,3.1-2.6c0.9-0.7,2.2-1.4,3.7-2.1c1.5-0.8,2.8-1.3,3.7-1.7c0.9-0.4,2.2-0.9,3.8-1.5s2.7-1,3.4-1.3v-5.5     c0-1.6-0.2-2.8-0.7-3.6s-1.3-1.3-2.6-1.3c-2.1,0-3.2,1.5-3.4,4.4l-0.4,4.1l-14.6-0.6c0-0.1,0-0.4,0-0.9s0-0.8,0-0.9     c0.5-6,2.3-10.5,5.6-13.3c3.3-2.9,8-4.3,14.1-4.3c5.4,0,9.6,1.5,12.4,4.5c2.8,3,4.3,7,4.3,12.1v25.7c0,3.5,0.3,8.2,1,13.9H879     c-0.8-4.5-1.2-7.1-1.3-7.8c-0.7,2.5-2,4.6-3.8,6.3C872.1,128.4,869.8,129.3,867.1,129.3z M872.7,118.5c0.7,0,1.5-0.3,2.3-0.8     s1.4-1.1,1.9-1.8v-15.1c-2.5,1.2-4.5,3-6.1,5.3s-2.4,4.5-2.4,6.6c0,1.8,0.4,3.2,1.2,4.3C870.4,118,871.5,118.5,872.7,118.5z"
   id="path90" />
			<path
   class="st8"
   d="M901.2,146.5V73h15.6v4.1c3.8-3.3,7.6-5,11.5-5c0.2,0,0.4,0,0.5,0c4,0.1,6.9,1.7,8.9,4.8     c1.9,3,2.9,6.9,2.9,11.6V112c0,5.3-1,9.5-3.2,12.6c-2.1,3.1-5.1,4.7-9,4.7s-7.7-1.7-11.7-5.1v22.4h-15.5V146.5z M921,119.1     C921,119.1,921.1,119.1,921,119.1c1.4,0,2.4-0.6,3-1.7c0.6-1.2,0.9-2.7,1-4.5V87.2c0-1.7-0.3-3.1-1-4.2c-0.6-1-1.5-1.5-2.7-1.5     c-0.1,0-0.3,0-0.4,0c-1.2,0.1-2.5,0.7-4.1,1.8v34.3C918.3,118.6,919.7,119.1,921,119.1z"
   id="path92" />
		</g>
	</g>
</g>
<g
   id="Capa_3_1_"
   class="st0">
	<g
   class="st3"
   id="g119">
		<rect
   x="356"
   y="56"
   class="st4"
   width="626"
   height="108"
   id="rect99" />
		<path
   class="st12"
   d="M363.4,126V58h23.5l12,49.6l12-49.6h23.5v68h-13.8V73.4h-1.5L405.8,123H392l-13.3-49.6h-1.5V126H363.4z"
   id="path101" />
		<path
   class="st12"
   d="M450.1,81.6c3.5-4.6,9.4-6.9,17.7-6.9c8.3,0,14.2,2.3,17.7,6.9c3.5,4.6,5.3,11,5.3,19.2    c0,17.5-7.7,26.3-23,26.3c-15.3,0-23-8.8-23-26.3C444.8,92.6,446.6,86.2,450.1,81.6z M460.4,112.2c1.4,2.4,3.8,3.6,7.4,3.6    c3.5,0,6-1.2,7.4-3.6c1.4-2.4,2-6.2,2-11.3c0-5.1-0.7-8.9-2-11.2c-1.4-2.3-3.8-3.5-7.4-3.5c-3.5,0-6,1.2-7.4,3.5    c-1.4,2.3-2,6.1-2,11.2C458.4,106,459.1,109.8,460.4,112.2z"
   id="path103" />
		<path
   class="st12"
   d="M524.8,74.8c7,0,12.1,1.9,15.3,5.8c3.2,3.8,4.9,10.7,4.9,20.6c0,9.9-1.9,16.7-5.6,20.4    c-3.7,3.8-10.2,5.7-19.3,5.7c-2.9,0-8.1-0.3-15.7-1l-3.8-0.4V56H514v21.5C518.3,75.7,521.9,74.8,524.8,74.8z M520.1,115.2    c4.5,0,7.5-1.1,9-3.2c1.5-2.2,2.3-6,2.3-11.7c0-9-2.8-13.5-8.4-13.5c-2.7,0-5.2,0.3-7.6,1l-1.4,0.3v26.7    C517.1,115.1,519.1,115.2,520.1,115.2z"
   id="path105" />
		<path
   class="st12"
   d="M555,69.6V56h13.4v13.6H555z M555,126V76h13.4v50H555z"
   id="path107" />
		<path
   class="st12"
   d="M581.4,126V56h13.4v70H581.4z"
   id="path109" />
		<path
   class="st12"
   d="M621.2,113.3c1.6,1.4,3.8,2,6.8,2c6.2,0,11.7-0.2,16.6-0.6l2.8-0.3l0.2,9.9c-7.7,1.9-14.6,2.8-20.8,2.8    c-7.5,0-13-2-16.4-6s-5.1-10.5-5.1-19.5c0-17.9,7.4-26.9,22.1-26.9c14.5,0,21.8,7.5,21.8,22.6l-1,9.3h-29.4    C618.9,109.8,619.7,112,621.2,113.3z M636,96.5c0-4-0.6-6.8-1.9-8.4c-1.3-1.6-3.5-2.4-6.7-2.4c-3.2,0-5.4,0.8-6.7,2.5    c-1.3,1.6-2,4.4-2,8.3H636z"
   id="path111" />
		<path
   class="st12"
   d="M676.3,126l15.3-68h26.2l15.3,68h-13.8l-2.7-12.3h-23.8l-2.7,12.3H676.3z M702.3,69.4l-6.9,32.3H714    l-6.9-32.3H702.3z"
   id="path113" />
		<path
   class="st12"
   d="M741,147V76h13.3v2.7c4.3-2.6,8.1-3.9,11.4-3.9c6.7,0,11.7,2,14.9,6.1c3.2,4,4.8,10.9,4.8,20.5    c0,9.7-1.8,16.4-5.3,20.1c-3.5,3.8-9.3,5.7-17.4,5.7c-2.2,0-4.6-0.2-7.1-0.6l-1.2-0.2V147H741z M763.1,86.8c-2.5,0-5,0.5-7.5,1.5    l-1.2,0.5V115c3,0.4,5.4,0.6,7.3,0.6c3.9,0,6.5-1.1,7.9-3.4c1.4-2.3,2.2-6.1,2.2-11.6C771.8,91.4,768.9,86.8,763.1,86.8z"
   id="path115" />
		<path
   class="st12"
   d="M795.4,147V76h13.3v2.7c4.3-2.6,8.1-3.9,11.4-3.9c6.7,0,11.7,2,14.9,6.1c3.2,4,4.8,10.9,4.8,20.5    c0,9.7-1.8,16.4-5.3,20.1c-3.5,3.8-9.3,5.7-17.4,5.7c-2.2,0-4.6-0.2-7.1-0.6l-1.2-0.2V147H795.4z M817.5,86.8    c-2.5,0-5,0.5-7.5,1.5l-1.2,0.5V115c3,0.4,5.4,0.6,7.3,0.6c3.9,0,6.5-1.1,7.9-3.4c1.4-2.3,2.2-6.1,2.2-11.6    C826.2,91.4,823.3,86.8,817.5,86.8z"
   id="path117" />
	</g>
	<g
   class="st3"
   id="g123">
		<circle
   class="st12"
   cx="236.5"
   cy="90.5"
   r="77.5"
   id="circle121" />
	</g>
	<g
   class="st3"
   id="g129">
		<rect
   x="193"
   y="55.4"
   class="st4"
   width="89.6"
   height="108"
   id="rect125" />
		<path
   class="st13"
   d="M200.4,125.4v-68h23.5l12,49.6l12-49.6h23.5v68h-13.8V72.8h-1.5l-13.3,49.6H229l-13.3-49.6h-1.5v52.6H200.4z    "
   id="path127" />
	</g>
</g>
<g
   id="Capa_4"
   transform="translate(-0.66834289)">
	<g
   id="g152">
		<rect
   x="356"
   y="56"
   class="st4"
   width="626"
   height="108"
   id="rect132" />
		
		
		<path
   class="st13"
   d="m 598.20002,75.58938 c -7.23013,0 -12.49782,2.14917 -15.80301,6.56061 -3.30521,4.29834 -5.0611,12.1032 -5.0611,23.30149 0,11.19828 1.96247,18.89003 5.7841,23.07525 3.82165,4.29833 10.53534,6.4475 19.93452,6.4475 2.99534,0 8.36631,-0.33934 16.21616,-1.13114 l 3.92493,-0.45246 V 54.32395 h -13.84054 v 24.31951 c -4.44137,-2.03605 -8.15973,-3.05408 -11.15506,-3.05408 z m 4.85451,45.69805 c -4.64794,0 -7.74657,-1.24425 -9.29589,-3.61964 -1.54932,-2.48851 -2.37562,-6.78684 -2.37562,-13.23434 0,-10.18026 2.89206,-15.27039 8.67617,-15.27039 2.78878,0 5.37096,0.33934 7.84986,1.13114 l 1.44603,0.33934 v 30.20144 c -3.20193,0.33934 -5.26767,0.45245 -6.30055,0.45245 z"
   id="path138"
   style="stroke-width:1.08089" />
		
		<a
   id="a799"
   style="opacity:1;fill:#000000;fill-opacity:1;fill-rule:nonzero" /><path
   id="path142-2"
   style="fill:#1a1a1a"
   class="st13"
   d="m 696.1042,127.77787 49.49747,-49.49747 9.47523,9.47523 -49.49747,49.49747 z m 49.66456,9.47524 -49.49747,-49.49747 9.47523,-9.47523 49.49747,49.49747 z" />
		<path
   class="st13"
   d="m 538.09565,120.14699 c 1.6,1.4 3.8,2 6.8,2 6.2,0 11.7,-0.2 16.6,-0.6 l 2.8,-0.3 0.2,9.9 c -7.7,1.9 -14.6,2.8 -20.8,2.8 -7.5,0 -13,-2 -16.4,-6 -3.4,-4 -5.1,-10.5 -5.1,-19.5 0,-17.9 7.4,-26.9 22.1,-26.9 14.5,0 21.8,7.5 21.8,22.6 l -1,9.3 h -29.4 c 0.1,3.2 0.9,5.4 2.4,6.7 z m 14.8,-16.8 c 0,-4 -0.6,-6.8 -1.9,-8.4 -1.3,-1.6 -3.5,-2.4 -6.7,-2.4 -3.2,0 -5.4,0.8 -6.7,2.5 -1.3,1.6 -2,4.4 -2,8.3 z"
   id="path144" /><path
   class="st13"
   d="m 654.71128,118.83007 c 1.6,1.4 3.8,2 6.8,2 6.2,0 11.7,-0.2 16.6,-0.6 l 2.8,-0.3 0.2,9.9 c -7.7,1.9 -14.6,2.8 -20.8,2.8 -7.5,0 -13,-2 -16.4,-6 -3.4,-4 -5.1,-10.5 -5.1,-19.5 0,-17.9 7.4,-26.9 22.1,-26.9 14.5,0 21.8,7.5 21.8,22.6 l -1,9.3 h -29.4 c 0.1,3.2 0.9,5.4 2.4,6.7 z m 14.8,-16.8 c 0,-4 -0.6,-6.8 -1.9,-8.4 -1.3,-1.6 -3.5,-2.4 -6.7,-2.4 -3.2,0 -5.4,0.8 -6.7,2.5 -1.3,1.6 -2,4.4 -2,8.3 z"
   id="path144-7"
   style="fill:#1a1a1a" />
		
		<path
   class="st13"
   d="M 356,133.61626 V 56 h 14.53938 v 2.951604 c 4.70071,-2.842285 8.85482,-4.263428 12.46233,-4.263428 7.32435,0 12.79029,2.186373 16.28848,6.668439 3.4982,4.372747 5.2473,11.915735 5.2473,22.410328 0,10.603911 -1.96774,17.928267 -5.79389,21.973057 -3.82615,4.15411 -10.16664,6.23116 -19.02145,6.23116 -2.40501,0 -5.02866,-0.21863 -7.76162,-0.65591 l -1.31183,-0.21864 v 22.51965 z m 24.15943,-65.809843 c -2.73297,0 -5.46594,0.546593 -8.1989,1.63978 l -1.31183,0.546593 v 28.641495 c 3.27956,0.437275 5.90321,0.655912 7.98026,0.655912 4.26343,0 7.10572,-1.202505 8.63618,-3.716838 1.53046,-2.514329 2.40501,-6.668439 2.40501,-12.680966 0,-10.057318 -3.17024,-15.085976 -9.51072,-15.085976 z"
   id="path148"
   style="stroke-width:1.09319" />
		
	<path
   class="st13"
   d="m 414.46241,89.28854 c 3.5,-4.6 9.4,-6.9 17.7,-6.9 8.3,0 14.2,2.3 17.7,6.9 3.5,4.6 5.3,11 5.3,19.20001 0,7.97567 -1.59937,14.14426 -4.78864,18.4963 -3.80855,5.19709 -9.88437,7.8037 -18.21136,7.8037 -15.3,0 -23,-8.8 -23,-26.3 0,-8.20001 1.8,-14.60001 5.3,-19.20001 z m 10.3,30.60001 c 1.4,2.4 3.8,3.6 7.4,3.6 3.5,0 6,-1.2 7.4,-3.6 1.4,-2.4 2,-6.2 2,-11.3 0,-5.10001 -0.7,-8.90001 -2,-11.20001 -1.4,-2.3 -3.8,-3.5 -7.4,-3.5 -3.5,0 -6,1.2 -7.4,3.5 -1.4,2.3 -2,6.1 -2,11.20001 0,5.1 0.7,8.9 2,11.3 z"
   id="path136-0-9"
   style="fill:#1a1a1a"
   sodipodi:nodetypes="sssssssscssscsssc" /><path
   id="path142-0"
   style="opacity:1;fill:#000000;fill-opacity:1;fill-rule:nonzero;stroke-width:0.698343"
   d="m 502.09175,134.09166 -31.02857,-36.03877 7.09742,-6.49926 31.02857,36.03877 z m -34.03767,-5.38526 28.61261,-63.88519 12.22945,5.47727 -28.61261,63.88519 z m -1.17055,5.47727 v -70 h 13.4 v 70 z" /></g>
	<g
   id="g156">
		<circle
   class="st13"
   cx="236.5"
   cy="90.5"
   r="77.5"
   id="circle154" />
	</g>
	<g
   id="g162"
   transform="translate(-163.07567,9.0226291)">
		<rect
   x="193"
   y="55.400002"
   class="st4"
   width="89.599998"
   height="108"
   id="rect158" />
		<path
   class="st12"
   d="m 200.4,125.4 v -68 h 23.5 l 12,49.6 12,-49.6 h 23.5 v 68 H 257.6 V 72.8 h -1.5 l -13.3,49.6 H 229 L 215.7,72.8 h -1.5 v 52.6 z"
   id="path160" />
	</g>
</g><g
   inkscape:groupmode="layer"
   id="layer1"
   inkscape:label="Layer 1"><path
     class="st13"
     d="M 214.82601,137.11462 V 49.026521 h 16.50101 v 3.349829 c 5.33491,-3.225761 10.04949,-4.838642 14.14372,-4.838642 8.31254,0 14.51593,2.481355 18.4861,7.568133 3.97017,4.96271 5.95525,13.523385 5.95525,25.433895 0,12.034569 -2.23322,20.347094 -6.57559,24.937604 -4.34237,4.71457 -11.5383,7.07186 -21.58779,7.07186 -2.72949,0 -5.70711,-0.24814 -8.80881,-0.74441 l -1.48881,-0.24813 v 25.55796 z m 27.41897,-74.688782 c -3.10169,0 -6.20338,0.620339 -9.30508,1.861016 l -1.48881,0.620339 v 32.50574 c 3.72203,0.49627 6.69966,0.74441 9.05694,0.74441 4.83865,0 8.06441,-1.36475 9.80136,-4.218305 1.73695,-2.853558 2.72949,-7.568131 2.72949,-14.391856 0,-11.414227 -3.59797,-17.121344 -10.7939,-17.121344 z"
     id="path148-8"
     style="fill:#ffffff;stroke-width:1.24068" /></g>
</svg>
